<svg width="25" height="24" viewBox="0 0 25 24" fill="none" xmlns="http://www.w3.org/2000/svg">
<path fill-rule="evenodd" clip-rule="evenodd" d="M20.6002 12.3088V17.555C20.6002 18.838 19.5538 19.885 18.2706 19.885L6.73197 19.885C5.44877 19.885 4.40234 18.838 4.40234 17.555L4.40234 12.3088C4.40234 11.0258 5.44877 9.97883 6.73197 9.97883C7.14959 9.97883 7.48815 10.3174 7.48815 10.735C7.48815 11.1526 7.14959 11.4912 6.73197 11.4912C6.28437 11.4912 5.9147 11.8607 5.9147 12.3088L5.9147 17.555C5.9147 18.0031 6.28437 18.3726 6.73197 18.3726L18.2706 18.3726C18.7182 18.3726 19.0878 18.0031 19.0878 17.555V12.3088C19.0878 11.8607 18.7182 11.4912 18.2706 11.4912C17.8529 11.4912 17.5144 11.1526 17.5144 10.735C17.5144 10.3174 17.8529 9.97884 18.2706 9.97884C19.5538 9.97884 20.6002 11.0258 20.6002 12.3088ZM15.7885 10.0807C16.0839 10.376 16.0839 10.8548 15.7887 11.1501L13.0351 13.9044C12.8933 14.0462 12.701 14.1259 12.5004 14.1259C12.2998 14.1259 12.1074 14.0462 11.9656 13.9043L9.21208 11.1501C8.91681 10.8548 8.91687 10.376 9.21221 10.0807C9.50755 9.78547 9.98634 9.78553 10.2816 10.0809L11.7442 11.5438V4.87337C11.7442 4.45574 12.0827 4.11719 12.5004 4.11719C12.918 4.11719 13.2566 4.45574 13.2566 4.87337V11.5438L14.7191 10.0809C15.0144 9.78553 15.4932 9.78547 15.7885 10.0807Z" fill="#5356BD"/>
</svg>
