<svg width="101" height="100" viewBox="0 0 101 100" fill="none" xmlns="http://www.w3.org/2000/svg">
<path d="M14.8605 25.7016H11.7721C11.3309 25.7016 11 25.3814 11 24.9543C11 24.5273 11.3309 24.207 11.7721 24.207H14.8605C15.3017 24.207 15.6326 24.5273 15.6326 24.9543C15.6326 25.3814 15.1914 25.7016 14.8605 25.7016Z" fill="black" fill-opacity="0.25"/>
<path d="M23.1339 25.7016H20.0455C19.6043 25.7016 19.2734 25.3814 19.2734 24.9543C19.2734 24.5273 19.6043 24.207 20.0455 24.207H23.1339C23.5751 24.207 23.906 24.5273 23.906 24.9543C23.906 25.3814 23.4648 25.7016 23.1339 25.7016Z" fill="black" fill-opacity="0.25"/>
<path d="M16.6367 22.4441V19.356C16.6367 18.9149 16.957 18.584 17.384 18.584C17.811 18.584 18.1313 18.9149 18.1313 19.356V22.4441C18.1313 22.8853 17.811 23.2162 17.384 23.2162C16.957 23.2162 16.6367 22.775 16.6367 22.4441Z" fill="black" fill-opacity="0.25"/>
<path d="M16.6367 30.7215V27.6334C16.6367 27.1922 16.957 26.8613 17.384 26.8613C17.811 26.8613 18.1313 27.1922 18.1313 27.6334V30.7215C18.1313 31.1626 17.811 31.4935 17.384 31.4935C16.957 31.4935 16.6367 31.0523 16.6367 30.7215Z" fill="black" fill-opacity="0.25"/>
<path fill-rule="evenodd" clip-rule="evenodd" d="M26.4471 59.7067C27.5882 51.4112 28.8421 42.0502 29.2841 37.8469C30.5692 26.8726 38.9696 18.8162 49.4986 18.8162C60.0281 18.8162 68.7899 27.2336 70.0732 38.2113L70.0738 38.2158C71.5814 50.532 73.5729 69.9407 74.0263 75.2253C74.139 76.5381 74.2088 77.8222 74.1478 78.9929C74.0864 80.1695 73.8949 81.1741 73.5236 81.9545C73.1633 82.7117 72.6355 83.2584 71.8507 83.5695C71.0409 83.8906 69.8723 83.9941 68.1868 83.677C64.6019 83.0026 62.5291 83.9264 60.2057 84.9618C59.5178 85.2684 58.8079 85.5848 58.0303 85.8724C56.3976 86.4762 55.1315 86.4585 53.6668 86.0541C52.5692 85.751 51.4039 85.2476 49.9058 84.6003L49.9052 84.6C49.2855 84.3323 48.6088 84.0399 47.8564 83.727C44.9466 82.5167 42.8503 82.676 40.8873 83.2649C40.2101 83.4681 39.5322 83.7284 38.8682 83.9834L38.8671 83.9838C38.6164 84.0801 38.3678 84.1756 38.1219 84.2669C37.2015 84.6089 36.25 84.9222 35.1612 85.1137C33.0949 85.4771 30.2185 85.5498 27.9651 84.3011C25.818 83.1113 24.0117 80.5896 24.2774 75.234L24.2839 75.1882L24.3187 74.9435L24.4513 74.0075C24.5659 73.1971 24.7307 72.0302 24.9312 70.6037C25.3321 67.7508 25.8758 63.8596 26.4471 59.7067ZM22.6074 75.0347C22.6074 75.035 22.6074 75.0351 23.4397 75.1535L22.6074 75.0351L22.602 75.0726L22.6001 75.1104C22.3007 80.949 24.2913 84.1876 27.1501 85.7718C29.9074 87.2998 33.2523 87.1567 35.4525 86.7697C36.6867 86.5526 37.7472 86.1999 38.7075 85.8431C38.9942 85.7365 39.2667 85.6319 39.5302 85.5307C40.1703 85.2849 40.7578 85.0592 41.3704 84.8754C43.0036 84.3855 44.6976 84.2342 47.2107 85.2795C47.8863 85.5605 48.5206 85.8346 49.1207 86.0938L49.1209 86.0939C50.6766 86.7661 52.0022 87.3388 53.2192 87.6748C54.9928 88.1645 56.6214 88.1861 58.6135 87.4494C59.5732 87.0945 60.379 86.7374 61.1109 86.413C63.3116 85.4377 64.8431 84.7589 67.8759 85.3295C69.7433 85.6808 71.2621 85.6117 72.4705 85.1326C73.704 84.6435 74.5255 83.7622 75.0419 82.6769C75.5473 81.6148 75.76 80.3622 75.8269 79.0804C75.8941 77.7926 75.8162 76.4169 75.7016 75.0816C75.2462 69.7743 73.2527 50.3472 71.743 38.0137C70.3709 26.2864 60.9743 17.1348 49.4986 17.1348C38.023 17.1348 28.9847 25.927 27.6135 37.6565L27.6134 37.6565L27.6124 37.6662C27.1743 41.8343 25.9243 51.169 24.7814 59.4776C24.2104 63.6284 23.6669 67.5179 23.2661 70.3697C23.0657 71.7956 22.901 72.962 22.7864 73.7719L22.6539 74.7073L22.6192 74.9517L22.6103 75.0141L22.6081 75.0298L22.6075 75.0338L22.6074 75.0347ZM45.7051 44.3445C47.557 44.3445 49.0583 42.8433 49.0583 40.9914C49.0583 39.1395 47.557 37.6383 45.7051 37.6383C43.8533 37.6383 42.352 39.1395 42.352 40.9914C42.352 42.8433 43.8533 44.3445 45.7051 44.3445ZM45.7051 46.0259C48.4856 46.0259 50.7397 43.7719 50.7397 40.9914C50.7397 38.2109 48.4856 35.9568 45.7051 35.9568C42.9246 35.9568 40.6706 38.2109 40.6706 40.9914C40.6706 43.7719 42.9246 46.0259 45.7051 46.0259ZM39.4965 44.6013C39.8864 44.3491 40.4068 44.4607 40.659 44.8506C41.6526 46.387 43.2379 47.3434 44.9876 47.3434C45.4519 47.3434 45.8283 47.7198 45.8283 48.1841C45.8283 48.6484 45.4519 49.0248 44.9876 49.0248C42.5926 49.0248 40.5077 47.7128 39.2471 45.7638C38.995 45.3739 39.1066 44.8534 39.4965 44.6013ZM58.7159 40.9914C58.7159 42.9464 60.3008 44.5313 62.2558 44.5313C64.2109 44.5313 65.7958 42.9464 65.7958 40.9914C65.7958 39.0363 64.2109 37.4514 62.2558 37.4514C60.3008 37.4514 58.7159 39.0363 58.7159 40.9914ZM57.2213 40.9914C57.2213 43.7719 59.4753 46.0259 62.2558 46.0259C65.0363 46.0259 67.2904 43.7719 67.2904 40.9914C67.2904 38.2109 65.0363 35.9568 62.2558 35.9568C59.4753 35.9568 57.2213 38.2109 57.2213 40.9914ZM68.4645 44.6013C68.0746 44.3491 67.5541 44.4607 67.302 44.8506C66.3083 46.387 64.7231 47.3434 62.9734 47.3434C62.5091 47.3434 62.1327 47.7198 62.1327 48.1841C62.1327 48.6484 62.5091 49.0248 62.9734 49.0248C65.3683 49.0248 67.4533 47.7128 68.7138 45.7638C68.966 45.3739 68.8544 44.8534 68.4645 44.6013Z" fill="black" fill-opacity="0.25"/>
<path d="M82.2855 49.3671H79.6384C79.3075 49.3671 78.9766 49.0395 78.9766 48.7119C78.9766 48.3843 79.3075 48.0566 79.6384 48.0566H82.2855C82.6164 48.0566 82.9473 48.3843 82.9473 48.7119C82.9473 49.1487 82.6164 49.3671 82.2855 49.3671Z" fill="black" fill-opacity="0.25"/>
<path d="M89.3441 49.3671H86.6969C86.3661 49.3671 86.0352 49.0395 86.0352 48.7119C86.0352 48.3843 86.3661 48.0566 86.6969 48.0566H89.3441C89.675 48.0566 90.0059 48.3843 90.0059 48.7119C90.0059 49.1487 89.7853 49.3671 89.3441 49.3671Z" fill="black" fill-opacity="0.25"/>
<path d="M83.8281 46.5223V43.9013C83.8281 43.5737 84.159 43.2461 84.4899 43.2461C84.8208 43.2461 85.1517 43.5737 85.1517 43.9013V46.5223C85.1517 46.8499 84.8208 47.1775 84.4899 47.1775C84.159 47.1775 83.8281 46.8499 83.8281 46.5223Z" fill="black" fill-opacity="0.25"/>
<path d="M83.8281 53.6219V51.0009C83.8281 50.6733 84.159 50.3457 84.4899 50.3457C84.8208 50.3457 85.1517 50.6733 85.1517 51.0009V53.6219C85.1517 53.9495 84.8208 54.2771 84.4899 54.2771C84.159 54.2771 83.8281 53.9495 83.8281 53.6219Z" fill="black" fill-opacity="0.25"/>
<path d="M72.9752 16.1091H71.2493C71.0192 16.1091 70.7891 15.8792 70.7891 15.6493C70.7891 15.4194 71.0192 15.1895 71.2493 15.1895H72.9752C73.2053 15.1895 73.4354 15.4194 73.4354 15.6493C73.4354 15.9941 73.2053 16.1091 72.9752 16.1091Z" fill="black" fill-opacity="0.25"/>
<path d="M77.8033 16.1091H76.0774C75.8473 16.1091 75.6172 15.8792 75.6172 15.6493C75.6172 15.4194 75.8473 15.1895 76.0774 15.1895H77.8033C78.0335 15.1895 78.2636 15.4194 78.2636 15.6493C78.2636 15.9941 78.0335 16.1091 77.8033 16.1091Z" fill="black" fill-opacity="0.25"/>
<path d="M74 14.1588V12.4344C74 12.2045 74.2301 11.9746 74.4602 11.9746C74.6904 11.9746 74.9205 12.2045 74.9205 12.4344V14.1588C74.9205 14.3887 74.6904 14.6186 74.4602 14.6186C74.2301 14.6186 74 14.3887 74 14.1588Z" fill="black" fill-opacity="0.25"/>
<path d="M74 18.985V17.2606C74 17.0307 74.2301 16.8008 74.4602 16.8008C74.6904 16.8008 74.9205 17.0307 74.9205 17.2606V18.985C74.9205 19.2149 74.6904 19.4448 74.4602 19.4448C74.2301 19.4448 74 19.2149 74 18.985Z" fill="black" fill-opacity="0.25"/>
</svg>
