<svg width="24" height="24" viewBox="0 0 24 24" fill="none" xmlns="http://www.w3.org/2000/svg">
<path d="M14.2092 8.75753H6.08451M8.79274 14.3738H6.08451M17.5945 8.61503V6.19433C17.5945 4.49919 16.382 3.125 14.8863 3.125H5.40745C3.91174 3.125 2.69922 4.49919 2.69922 6.19433V16.937C2.69922 18.6321 3.91174 20.0063 5.40745 20.0063H7.76421" stroke="#5356BD" stroke-width="1.5013" stroke-linecap="round" stroke-linejoin="round"/>
<path d="M16.53 14.9847V17.9159L17.8138 18.7534M16.53 21.8764C13.8965 21.8764 11.7617 19.7415 11.7617 17.1081C11.7617 14.4747 13.8965 12.3398 16.53 12.3398C19.1634 12.3398 21.2983 14.4747 21.2983 17.1081C21.2983 19.7415 19.1634 21.8764 16.53 21.8764Z" stroke="#5356BD" stroke-width="1.5" stroke-linecap="round" stroke-linejoin="round"/>
</svg>
