<svg width="24" height="24" viewBox="0 0 24 24" fill="none" xmlns="http://www.w3.org/2000/svg">
<path d="M21.25 12C21.25 17.1086 17.1086 21.25 12 21.25M21.25 12C21.25 6.89137 17.1086 2.75 12 2.75M21.25 12H2.75M12 21.25C6.89137 21.25 2.75 17.1086 2.75 12M12 21.25C13.9649 21.25 16.9808 17.1086 16.9808 12C16.9808 6.89137 13.9649 2.75 12 2.75M12 21.25C10.0351 21.25 7.01923 17.1086 7.01923 12C7.01923 6.89137 10.0351 2.75 12 2.75M12 21.25V2.75M2.75 12C2.75 6.89137 6.89137 2.75 12 2.75" stroke="#5356BD" stroke-width="1.5" stroke-linecap="round" stroke-linejoin="round"/>
</svg>
