<svg xmlns="http://www.w3.org/2000/svg" width="24" height="24" viewBox="0 0 24 24" fill="none">
  <path d="M13.8835 5.39748V10.1387M16.2419 5.39748V10.1387M18.6002 5.39748V10.1387M5.62937 10.5862H9.87437C10.2651 10.5862 10.5819 10.2694 10.5819 9.87862V5.63333C10.5819 5.24256 10.2651 4.92578 9.87437 4.92578H5.62937C5.23863 4.92578 4.92188 5.24256 4.92188 5.63333V9.87862C4.92188 10.2694 5.23863 10.5862 5.62937 10.5862ZM5.62937 19.0768H9.87437C10.2651 19.0768 10.5819 18.76 10.5819 18.3692V14.1239C10.5819 13.7331 10.2651 13.4164 9.87437 13.4164H5.62937C5.23863 13.4164 4.92188 13.7331 4.92188 14.1239V18.3692C4.92188 18.76 5.23863 19.0768 5.62937 19.0768ZM14.1194 19.0768H18.3644C18.7551 19.0768 19.0719 18.76 19.0719 18.3692V14.1239C19.0719 13.7331 18.7551 13.4164 18.3644 13.4164H14.1194C13.7286 13.4164 13.4119 13.7331 13.4119 14.1239V18.3692C13.4119 18.76 13.7286 19.0768 14.1194 19.0768Z" stroke="#5356BD" stroke-width="1.51612" stroke-linecap="round" stroke-linejoin="round"/>
</svg>