<svg width="24" height="24" viewBox="0 0 24 24" fill="none" xmlns="http://www.w3.org/2000/svg">
<path fill-rule="evenodd" clip-rule="evenodd" d="M11.5739 18.3299C11.9881 18.3299 12.3239 17.9941 12.3239 17.5799C12.3239 17.1656 11.9881 16.8299 11.5739 16.8299H6.05661C5.79369 16.8299 5.58055 16.6167 5.58055 16.3538V13.6708H7.28268C8.37403 13.6708 9.25874 12.7861 9.25874 11.6948V10.4687C9.25874 9.37735 8.37403 8.49264 7.28268 8.49264H5.58055V6.79051C5.58055 6.52759 5.79369 6.31445 6.05661 6.31445H18.6851C18.948 6.31445 19.1611 6.52759 19.1611 6.79051V11.5722C19.1611 11.9864 19.4969 12.3222 19.9111 12.3222C20.3253 12.3222 20.6611 11.9864 20.6611 11.5722V6.79051C20.6611 5.69917 19.7764 4.81445 18.6851 4.81445H6.05661C4.96527 4.81445 4.08055 5.69917 4.08055 6.79051V8.63994C3.36113 8.9353 2.85449 9.64283 2.85449 10.4687V11.6948C2.85449 12.5206 3.36113 13.2282 4.08055 13.5235V16.3538C4.08055 17.4451 4.96527 18.3299 6.05661 18.3299H11.5739ZM7.75874 11.6948C7.75874 11.9577 7.5456 12.1708 7.28268 12.1708H4.83055C4.56763 12.1708 4.35449 11.9577 4.35449 11.6948V10.4687C4.35449 10.2058 4.56763 9.99264 4.83055 9.99264H7.28268C7.5456 9.99264 7.75874 10.2058 7.75874 10.4687V11.6948ZM18.7198 13.4907C18.4269 13.1978 17.952 13.1978 17.6591 13.4907C17.3662 13.7836 17.3662 14.2585 17.6591 14.5514L18.5857 15.478H14.5113C14.097 15.478 13.7613 15.8137 13.7613 16.228C13.7613 16.6422 14.097 16.978 14.5113 16.978H18.5857L17.6591 17.9045C17.3662 18.1974 17.3662 18.6723 17.6591 18.9652C17.952 19.2581 18.4269 19.2581 18.7198 18.9652L20.9267 16.7583C21.0673 16.6176 21.1464 16.4269 21.1464 16.228C21.1464 16.029 21.0673 15.8383 20.9267 15.6976L18.7198 13.4907Z" fill="#5356BD"/>
</svg>
